<svg version="1" xmlns="http://www.w3.org/2000/svg" width="4320" height="4320" viewBox="0 0 3240.000000 3240.000000"><path d="M0 1028c0 193.6.1 204 1.8 204.1.9 0 101.2 0 222.9.1h221.2v589.7c0 324.3.1 590.6.1 591.8v2.3h490.5V1232.5l224.3-.1c207.1-.2 224.2-.1 224.2 1.5.1.9.1 267.2.1 591.8l.1 590.3H1849V1395h2c2.1 0 4.5 4.3 3.4 6.1-.3.5-.1.9.4.9s.9.6 1 1.2c0 .7 1.7 7.4 3.7 14.8s3.8 14.2 4 15c.2.8.8 2.6 1.3 4s1 2.9 1.1 3.5c.2 1.4 1.7 7.3 4.6 18 3.6 13.1 12.3 45.3 13.7 50.5.7 2.5 1.1 4.8 1 5.2-.1.5.3.8.9.8.5 0 .8.4.4.9-.3.5.1 2.9.9 5.3s2.4 8.1 3.6 12.8c1.2 4.7 2.7 10.4 3.3 12.7.5 2.4 1.4 4.3 1.8 4.3.4 0 .6.7.5 1.6-.1.9.6 4.6 1.6 8.3 1.1 3.6 2.1 7.7 2.4 9.1.2 1.4.7 3.2 1.1 4 .3.8.8 2.4 1 3.5.2 1.1.8 3.1 1.3 4.5s1.2 3.6 1.4 5c.3 1.4.9 4 1.5 5.7.5 1.8.7 3.3.4 3.3-.3 0-.1.6.4 1.2.6.7 1.6 3.8 2.2 6.8.7 3 1.6 6.4 2.1 7.5.8 1.9 1.9 5.9 2.6 9.6.4 1.8 2.4 9.3 5.4 19.9 1.1 4.1 2.3 8.4 2.5 9.5.3 1.1 2.5 9.4 5 18.5s4.8 17.2 4.9 18c.2.8.9 3.5 1.6 6 .7 2.5 1.4 5.2 1.6 6 .2.8 1.3 4.9 2.5 9 1.1 4.1 2.9 10.7 3.9 14.7 1 3.9 2 7.6 2.3 8 .3.5.8 2 1 3.4.7 3.3 6.6 26 7.4 27.9.3.8.7 2.2.8 3 .1.8.8 3.5 1.5 6 .8 2.5 1.4 4.8 1.6 5.2.1.5.2.9.4 1 .2.3.6 2.1 1.5 6.3.9 4 1.1 4.8 1.8 6.5.5 1.3.9 2.9 2.3 8.5.1.5 1.2 4.6 2.4 9s2.8 10.2 3.5 13c12.6 46.5 20.9 77.1 22.1 81.5.9 3 2.4 8.6 3.4 12.5 1 3.8 2.8 10.6 4 15 1.2 4.4 2.3 8.7 2.5 9.5.2.8.4 1.5.5 1.5.1 0 .3.7.5 1.5.1.8.8 3.5 1.6 6 .7 2.5 1.3 5.1 1.5 5.8 1 5.1 2.9 11.2 3.6 11.2.4 0 .5.7.2 1.5s-.2 2 .2 2.7c.4.7.9 1.9 1 2.8.1.8 1.4 5.8 2.9 11 1.4 5.2 2.8 10.2 3 11 .2.8 1.2 4.2 2.1 7.5.9 3.3 1.7 6.4 1.9 7 .9 3.9 1.8 7.2 2.2 8.5.8 1.9 1.3 4 1.6 6.5.2 1.2.6 2.5.9 3 .6 1.1 3.3 11.5 3.3 13 0 .5.3 1.2.6 1.5.3.3 2.2 6.8 4.2 14.5 1.9 7.7 5.7 21.6 8.2 31 2.6 9.3 5.1 18.3 5.5 20 .4 1.6 3.6 13.3 7 26 3.4 12.6 6.4 23.7 6.5 24.5.2.8.4 1.5.5 1.5.1 0 .4 1.3.6 3 .3 1.6.8 3.2 1.2 3.5.4.3.8 1.6 1 3 .1 1.4.5 3.2.9 4 .6 1.4.8 2.1 1.6 5.2.2.7.7 3.1 1.2 5.3.4 2.2 1 4.4 1.4 5 .3.5.6 1.4.7 2 .9 5 1.4 6.6 2.3 8.3.6 1.1.8 2.2.5 2.5-.3.3-.1 1.4.5 2.4.5 1.1 1.1 3.1 1.3 4.6.2 1.4.7 2.9 1.1 3.3.4.4.7 2 .7 3.5s.5 3.1 1 3.4c.6.4.9 1.2.8 1.8-.1.7.3 2.8 1 4.7.6 1.9 1.4 4.6 1.6 6 .3 1.4 2.2 8.3 4.1 15.5 2 7.1 3.8 13.7 4.1 14.5 1.2 4.7 7.6 28.9 9.9 37 4.4 15.8 5.2 19 8.4 31 4.9 18.4 14.1 52 15.7 57.5.8 2.7 1.7 6.1 2 7.5.3 1.4 1.2 4.8 2 7.6s1.7 6 1.9 7c.2 1.1.8 3.2 1.3 4.9l.8 3 183 .3 183 .2 7.8-28.7c4.3-15.8 8-29.9 8.3-31.2.2-1.4.9-3.1 1.5-3.8.6-.7.8-1.3.5-1.3-.2 0 .4-3.3 1.5-7.2 2.8-10.2 3.8-14 4.3-16 .2-.9 1.3-5.2 2.6-9.5 1.2-4.3 2.3-8.5 2.4-9.3.2-.8.4-1.6.5-1.8.2-.1.4-.7.5-1.2.1-.6.3-1.1.4-1.3.2-.1.4-1.3.7-2.7.2-1.4 1.3-5.4 2.3-9 1.1-3.6 2.3-7.9 2.6-9.5.8-3.9 1.3-5.9 1.5-6.3.2-.1.3-.5.4-1 .1-.4.8-2.5 1.4-4.6.6-2.2.9-4.2.7-4.5-.3-.2-.1-.9.4-1.5s1.6-4 2.6-7.6c2.2-8.8 2.2-8.5 4.5-17 3.6-12.9 6.1-22.4 6.5-24.3.2-1 .7-2.7 1-3.7.3-1 .8-2.7 1-3.7.2-1 1.3-5 2.4-8.8 1.1-3.9 4.3-15.6 7.1-26 2.8-10.5 6-22.4 7.2-26.5 2.6-9.8 2.6-9.7 4-15.5.6-2.8 1.6-5.3 2-5.6.5-.3.8-1 .6-1.5-.1-.5.4-3.4 1.2-6.4.8-3 1.5-5.7 1.5-6 .1-.3.5-1.9.9-3.5.4-1.7 1-3.7 1.3-4.5.7-1.8.5-1.1 2.2-8 .8-3 1.7-6 2.1-6.5.4-.6.6-1.8.5-2.8-.2-.9.2-1.7.8-1.7.5 0 .8-.3.5-.6-.4-.3-.2-2 .4-3.7.5-1.8 1.2-4.5 1.5-6.1.2-1.6.9-4.1 1.5-5.5.5-1.4 1.2-3.7 1.4-5.1.3-1.4.9-3.6 1.4-5 .5-1.4 1.2-3.7 1.4-5.2.3-1.5.7-3.1 1-3.6.5-.8 1.6-5.2 2-8.2.1-.9.5-2 .8-2.5.3-.6.9-2.6 1.4-4.5 1.1-5 1.1-5 1.4-5.3.1-.1.3-.9.5-1.7.2-.8 2.9-11 6-22.5 3.1-11.6 7-26 8.7-32 1.6-6.1 3.5-13.3 4.3-16 .8-2.8 1.7-6.1 2.1-7.5.3-1.4 1.9-7.3 3.6-13.2 1.6-6 3.1-11.6 3.3-12.5.2-1 1.3-5 2.4-8.8 1.1-3.9 2.2-8.1 2.5-9.5.3-1.4 1.7-6.6 3.1-11.5 1.4-5 2.7-9.9 2.9-11 .2-1.1.9-3.1 1.4-4.5.5-1.4 1-2.8 1.1-3.3 0-.4.1-.8.2-1 0-.1.3-1.3.5-2.7.3-1.4 1.4-5.6 2.5-9.4 1.1-3.8 2.2-7.6 2.4-8.5.2-.9.9-3.1 1.4-5 .6-1.9.9-3.7.6-3.9-.3-.3-.1-1 .4-1.6.7-.9 4.5-14 5.6-19.9.2-.9.6-2.1.9-2.5.3-.5.7-1.9 1-3.3.5-2.5 4.7-18.2 8.6-32.4 1.2-4.4 2.6-9.6 3.1-11.5.5-1.9 1.2-4.3 1.4-5.2.3-1 .7-2.6 1-3.5.2-1 3.2-11.9 6.6-24.3 3.3-12.4 6.2-23.3 6.4-24.3.2-.9.6-2.1.9-2.5.3-.5.7-1.9 1-3.3.2-1.3 1.6-6.7 3.1-11.9 1.4-5.2 2.8-10.3 3-11.3.2-1 .7-2.7 1-3.7.3-1 .8-2.7 1-3.7.2-1 1.6-6.1 3.1-11.3 1.4-5.2 2.7-10.2 2.9-11 .1-.8.5-2.2.8-3 .6-1.4 5.3-18.9 6.2-22.8.4-1.8 7.3-26.9 10.6-38.7 1.1-3.9 2.2-7.9 2.4-9 .2-1.1 1.4-5.4 2.5-9.5 1.2-4.1 2.3-8.2 2.5-9 .1-.8 2.8-10.8 5.9-22.2 3.1-11.4 5.9-21.5 6.1-22.5.2-1 1.4-5.2 2.5-9.3 1.2-4.1 2.5-9.1 3-11 .5-1.9 2.2-8.5 4-14.5 1.7-6.1 3.4-12.4 3.7-14 .3-1.7.8-3.2 1.1-3.5.4-.3.8-1.4.9-2.5.1-1.1.9-4.7 1.8-8 1-3.3 2.2-7.8 2.7-10 1.5-5.9 1.4-5.9 2.1-7.5.5-1.3 3.9-14 5.2-19.2.2-.9 1.3-5.2 2.5-9.5 5.3-19.1 5-18.4 7.3-18.1 2.1.3 2.1.8 2.2 12.1 0 6.6-.3 12.1-.8 12.4-.4.2-.4 1 0 1.6 1.2 1.9 1 26.1-.2 26.9-.6.5-.6.8 0 .8.9 0 1 8.6.5 43.5 0 .5.1 8.8.3 18.3.1 9.6-.1 17.6-.6 17.9-.4.2-.4 1 0 1.6 1 1.6 1 39.7 0 39.7-.5 0-.5.6-.1 1.2 1.1 1.8 1.2 31.1.1 32.5-.5.7-.6 1.3-.1 1.3 1.1 0 1.2 29 .1 30.7-.5.7-.5 1.3 0 1.3.6 0 .8 19.5.3 47.5 0 .5.1 8.8.3 18.3.1 9.6-.1 17.6-.6 17.9-.4.2-.4 1 0 1.6 1 1.6 1 39.7 0 39.7-.5 0-.5.6-.1 1.2 1.2 1.9 1.1 52.8-.1 52.8-.7 0-.7.3 0 .8 1.2.9 1.4 62.2.2 62.2-.5 0-.5.6 0 1.2 1.1 2 1 63.8-.2 63.8-.7 0-.7.3 0 .8 1.2.8 1.4 62.2.2 62.2-.4 0-.4.8.1 1.7.6 1.5.7 17.2.2 59.8 0 .5.1 8.8.3 18.3.1 9.6-.1 17.6-.6 17.9-.4.2-.4 1 0 1.6 1 1.6 1 39.7 0 39.7-.5 0-.5.6-.1 1.2 1.1 1.8 1.2 31.1.1 32.5-.5.7-.6 1.3-.1 1.3 1.1 0 1.2 29 .1 30.7-.5.7-.5 1.3 0 1.3.6 0 .8 19.5.3 47.5 0 .5.1 8.8.3 18.3.1 9.6-.1 17.6-.6 17.9-.4.2-.4 1 0 1.6 1 1.6 1 39.7 0 39.7-.5 0-.5.6-.1 1.2 1.1 1.8 1.2 31.1.1 32.6-.5.6-.6 1.2-.1 1.2 1.3 0 1.2 34.3-.1 35.2-.7.5-.6.8.1.8.6 0 1 1.5.9 3.5l-.3 3.5H3240V824h-349c-191.9 0-349 .3-349.1.7-.1 1.4-.6 3.7-2.3 9.9-.8 3.3-1.7 6.9-1.9 8-.1 1-.6 2.5-1.1 3.2-.4.7-.5 1.6-.2 1.9.3.3.1 1.2-.5 2-.6.7-.9 1.3-.5 1.3.3 0 .1 1.1-.4 2.6-.6 1.4-1.2 3.9-1.5 5.5-.5 2.6-2.7 12-4 17.1-.8 2.8-1.6 6.1-2.1 8.8-.3 1.4-.7 3.2-.9 4-.2.8-.4 1.5-.5 1.5-.1 0-.3.7-.5 1.5s-.8 3.5-1.3 5.9c-.6 2.5-.9 4.8-.6 5.2.2.4 0 1-.5 1.3-.7.5-2.1 5.1-2.6 9.1-.1.5-.5 2.2-.9 3.6s-.9 3.4-1.1 4.5c-.2 1-.4 1.9-.5 1.9-.2 0-.9 3.3-1.5 6.5-.2 1.4-.4 2.6-.6 2.7-.1.2-.2.6-.4 1-.9 3.6-2.2 8.8-7.1 28.8-6 24.6-6.2 25.7-7 29.5-.3 1.4-.7 3.2-.9 4-.2.8-.4 1.5-.5 1.5-.1 0-.3.8-.5 1.7-.2.9-1 4.5-1.9 8-3.6 14.8-8.8 36.4-9.1 37.8-.2.8-.8 3.5-1.5 6s-1.4 5.6-1.7 7c-.2 1.4-1.3 5.9-2.4 10-1.1 4.1-2.1 8.2-2.1 9 0 .8-.5 2.1-1.1 2.7-.5.7-.7 1.3-.5 1.3.5 0-.2 3-2.7 13-.2.8-.4 1.5-.5 1.5-.1 0-.3 1.1-.5 2.5-.6 3.2-1.3 6.5-1.5 6.5-.1 0-.4 1.1-.6 2.5-.3 1.4-.9 4.3-1.5 6.5s-1.2 4.7-1.4 5.5c-.2.8-1.8 7.3-3.5 14.4-1.8 7.1-3.3 13.7-3.5 14.5-.2.9-2.7 11-5.5 22.6-2.8 11.5-5.4 21.9-5.6 23.1-.2 1.1-1.3 5.6-2.4 10-1.2 4.3-2.3 9-2.6 10.4-.3 1.4-1.2 5.2-2.1 8.5-.8 3.3-1.7 7.1-2 8.4-.2 1.4-1.9 8.6-3.8 16-4.6 18.3-10.6 43.1-11.1 45.6-.2 1.1-.8 3.8-1.4 6-.6 2.2-1.3 4.8-1.5 5.8-.2 1-.6 2.6-.9 3.5-.3.9-.8 2.8-1 4.2-.3 1.4-1.1 4.5-1.7 7-.6 2.5-1.3 5.4-1.4 6.5-.2 1.1-.4 2-.5 2-.1 0-.4 1.1-.7 2.5-.7 3.9-1.1 5.5-1.3 5.5-.2 0-.9 3-1.4 6-.2 1.1-.6 2.7-1 3.5-.3.8-.8 2.6-1 4-.3 1.4-.5 2.5-.6 2.5-.1 0-.3.9-.5 2-.5 2.6-1.3 5.9-1.5 6.2-.2.2-.4 1.2-.5 2.3-.1 1.1-.3 2.1-.5 2.2-.2.3-.5 1.6-1.3 5.3-.3 1.1-1.9 7.6-3.6 14.5-1.6 6.9-3.2 13.6-3.5 15-.3 1.4-1.2 5-2 8-1.1 4.3-5.3 21.6-9 37-.2.8-1.8 7.3-3.6 14.5-1.7 7.1-3.3 13.7-3.5 14.5l-2 8c-.9 3.6-1.8 7.6-2.1 8.8-1.3 6.4-10.5 43.9-11.1 45.2-.3.8-.7 2.8-.9 4.5-.2 1.6-.7 3.7-1.1 4.5-.3.8-.7 1.9-.8 2.5-.4 3-1.7 9.2-2.2 10.5-.3.8-.7 2.2-.9 2.9-.2.8-1 4.5-1.9 8.1-.9 3.6-1.8 7.5-2 8.6-.2 1-.4 1.9-.5 1.9-.2 0-2 7.6-2.5 10.5-.1.8-.5 2.2-.8 3-.3.8-1.1 4-1.8 7s-1.4 5.7-1.4 6c-.1.3-.5 2.3-1 4.5s-1 4.3-1.1 4.7c-.1.5-.3.9-.4 1-.1.2-.4 1.2-.6 2.3-.1 1.1-1.6 7.4-3.3 14-1.6 6.6-3.2 13.1-3.5 14.5-.3 1.4-1 4.1-1.6 6-.5 1.9-1.2 4.6-1.5 6-.6 3.1-.9 4.6-3.4 14.7-1.1 4.5-2.3 9.2-2.6 10.5-.2 1.3-1.6 6.8-3 12.3-2.3 9.3-4 16.1-5 21-.2 1.1-2.3 9.4-4.5 18.5s-4.2 17.2-4.4 18c-1 4.9-2 6.9-3.6 7.3-1.8.5-2.6-.6-3.6-4.8-.6-2.2-1.4-5.6-1.8-7.3-.2-.9-.9-3.7-1.6-6.2-.6-2.5-1.2-5.4-1.5-6.5-.2-1.1-1.3-5.7-2.4-10.2-1.1-4.5-2.3-9.2-2.5-10.5-.3-1.3-1.9-7.7-3.6-14.2-1.6-6.6-3.1-13.2-3.2-14.8-.1-1.5-.5-2.8-.9-2.8s-.9-1.5-1.2-3.3c-.7-4.3-1.5-7.9-3.7-16.2-1-3.9-2.2-8.6-2.5-10.5-.3-1.8-.8-3.6-1-4-.2-.3-.6-1.7-.8-3.1-.5-2.3-5.7-24.4-7.8-32.4-1-4.1-1.6-6.5-2.3-10-.2-1.1-1.6-6.5-3-12s-3.6-14.7-5-20.5c-1.4-5.8-3-12.5-3.6-15-.6-2.5-1.3-5.9-1.6-7.5-.3-1.7-.9-3.2-1.2-3.5-.4-.3-.8-1.4-.9-2.5-.1-2.2 0-1.8-4.3-19.3-1.7-7-3.3-13.4-3.5-14.2-.8-3.4-4.7-19.6-5.2-21.5-.2-1.1-.6-2.9-.8-4-.2-1.1-.4-2-.5-2-.3 0-2.8-10.5-3.5-14.8-.3-1.6-.7-3.3-1.1-3.8-.3-.5-.7-2.1-1-3.5-.3-1.4-1.6-7.1-3-12.7s-2.8-11.1-3-12.2c-.2-1.1-1.1-4.7-1.9-8-.8-3.3-2.1-8.9-3-12.5-.8-3.6-1.7-7.2-1.9-8-.3-.8-1.2-4.7-2.1-8.5-1.9-7.8-1.8-7.5-4-16.5-.9-3.6-1.8-7.3-2-8.3-.2-1-.7-2.7-1-3.7-.6-1.9-1.2-4.6-2.1-9-.3-1.4-.7-3.3-1-4.2-.3-.9-.7-2.7-1-4-.3-1.3-.6-2.8-.8-3.3-.2-.6-.6-2.4-1-4-.4-1.7-1.4-5.7-2.2-9-.8-3.3-1.8-7.1-2.1-8.5-.2-1.4-.6-3.2-.8-4-.2-.8-.4-1.5-.5-1.5-.1 0-.4-1.1-.6-2.5-.3-1.4-.9-4.3-1.5-6.5s-1.2-4.7-1.4-5.5c-.2-.8-.8-3.5-1.4-6-.7-2.5-1.4-5.4-1.6-6.5-.3-1.1-1.2-4.9-2.1-8.4-.9-3.6-1.8-7.3-2-8.3-.2-1-.6-2.7-.9-3.8-1.2-4.9-1.6-6.7-2.1-9-.3-1.4-1-4.1-1.6-6-.6-1.9-1.3-4.4-1.4-5.5-.1-1.1-1.2-5.6-2.3-10-1.1-4.4-2.2-8.9-2.4-10-.2-1.1-.6-2.7-.9-3.5-.5-1.3-2.1-8-3.3-13.5-.2-1.1-.8-3.5-1.4-5.3-.5-1.8-1-3.3-1-3.5.1-.3-.6-3.2-4.2-18.2-3.3-14-3.3-13.8-4.2-17.5-1-3.7-15.6-64.3-16.2-67-.2-.8-1.2-5.1-2.4-9.5-1.1-4.4-2.2-9.1-2.5-10.5-.3-1.4-1.6-7-3-12.5s-2.6-10.8-2.6-11.8c0-.9-.5-1.7-1.1-1.7-.5 0-.7-.4-.4-1 .3-.5 0-2.9-.6-5.2-1.4-4.9-1.5-5.4-2.2-8.8-.3-1.4-1.5-6.3-2.7-11-1.2-4.6-2.2-9.3-2.3-10.2-.1-1-.4-1.8-.7-1.8-.3 0-.6-1-.7-2.3-.1-1.2-1.1-6-2.3-10.7-1.2-4.7-2.3-9.2-2.5-10-.2-.8-.8-3.5-1.5-6s-1.4-5.4-1.5-6.5c-.2-1.1-1.5-6.5-3-12-1.4-5.5-2.7-10.9-2.9-12-.1-1.1-.5-2.7-.8-3.5-.3-.8-2-7.4-3.7-14.5-2.9-12.5-7.8-32.6-16.2-67.5-2.3-9.1-4.2-17.2-4.4-18-.1-.8-.8-3.3-1.4-5.5-.6-2.2-1.2-5.1-1.5-6.5-.2-1.4-.5-2.5-.6-2.5-.1 0-.3-.8-.5-1.7-.2-.9-1.1-4.8-2-8.5-1-3.7-1.8-7.4-1.8-8.1 0-1-46.5-1.2-244.1-.8-134.3.3-282.2.6-328.8.6l-84.8.2-.1 7.1c0 4-.2 9.2-.4 11.7-1 11.1-1.5 15.6-1.9 17.5-.2 1.1-.7 4.2-1 7-.9 6.8-5.9 27.3-8.9 36.5s-8.8 24.3-9.6 25c-.3.3-.7 1.2-.9 2-.5 2.3-6.4 14-7.4 14.6-.4.3-.8 1.4-.8 2.5 0 1-.4 1.9-.9 1.9s-1.4 1.2-2 2.7c-2 5.1-17.1 27.6-23.7 35.3-9.6 11.3-12.7 14.6-20.9 22.5-5 4.9-10.5 10.2-12.2 11.6-4.4 3.8-23.6 18.4-25.3 19.2-.8.4-4.2 2.5-7.5 4.6-14 9.2-45.5 23.4-61 27.6-3.3.9-6.7 1.9-7.5 2.2-2 .8-2.7 1-8 2.1-2.5.6-5.6 1.3-7 1.7-4.1 1-9.3 1.8-12.7 1.9-1.8.1-3.3.4-3.3.7 0 .3-.6.6-1.2.6-.7.1-5.1.5-9.8.9-10.7 1-42.4 1.1-51 .1-3.6-.4-8.3-.9-10.5-1.1-2.2-.3-5.1-.7-6.5-1-1.4-.3-3.8-.8-5.5-1-1.6-.3-5.8-1.1-9.2-1.9-3.5-.9-6.3-1.3-6.3-1 0 .3-.6.1-1.2-.5-.7-.5-2.6-1.2-4.3-1.5-1.6-.3-5.2-1.3-8-2.2-2.7-1-5.4-1.9-6-2-.5-.1-1.9-.5-3-.9-1.1-.5-3.3-1.2-5-1.8-1.6-.6-4.9-1.9-7.2-2.9-2.4-1.1-4.6-1.9-4.9-1.9-1.2 0-26.2-12.9-32.9-17-7.7-4.7-24.5-16.5-28.6-20.2-1.5-1.3-4.8-4.1-7.4-6.3-6.1-5.1-18.5-17.5-23.9-23.9-2.2-2.6-4.9-5.8-6-7-1-1.1-3.7-4.6-6-7.6-2.2-3-4.4-5.7-4.7-6-.9-.8-14.2-22.2-15.9-25.5-.8-1.7-2.2-4.1-3.1-5.5-.9-1.4-1.7-2.7-1.7-3 0-.3-1.6-3.9-3.6-8-4.9-10.5-11.4-27.6-12.2-31.9-.4-2-1-4.1-1.4-4.6-.8-1-5.4-20.3-6.4-26.5-.3-1.9-.8-4.9-1.1-6.5-1.4-8.7-2.7-20.9-3-28-.2-4.4-.3-9.2-.4-10.8l-.1-2.7H0v204z"/></svg>